# xmcd CD database file
#
# Track frame offsets:
#	150
#	12317
#	26741
#	39962
#	53718
#	65151
#	79380
#	92705
#	103730
#	118019
#	129649
#	141433
#	154210
#	168304
#
# Disc length: 2417 seconds
#
# Revision: 0
# Processed by: cddbd v1.5.2PL0 Copyright (c) Steve Scherf et al.
# Submitted via: CDex 1.81
#
DISCID=c3096f0e
DTITLE=Bar D Wranglers - Family Bible
DYEAR=2013
DGENRE=Country
TTITLE0=Daddy Sang Bass
TTITLE1=Family Bible
TTITLE2=Desert Pete
TTITLE3=The Wall
TTITLE4=Give The Word A Smile
TTITLE5=Dig Another Well
TTITLE6=Just Over In The Glory Land
TTITLE7=I'm Working On A Building
TTITLE8=The Master's Call
TTITLE9=Life's Railway To Heaven
TTITLE10=The Mystery Of His Way
TTITLE11=What A Friend We Have In Jesus 
TTITLE12=You Don't Knock
TTITLE13=Beyond The Sunset
EXTD=YEAR: 2013
EXTT0=
EXTT1=
EXTT2=
EXTT3=
EXTT4=
EXTT5=
EXTT6=
EXTT7=
EXTT8=
EXTT9=
EXTT10=
EXTT11=
EXTT12=
EXTT13=
PLAYORDER=
